<?xml version="1.0" encoding="utf-8"?>
<!-- Generator: Adobe Illustrator 25.1.0, SVG Export Plug-In . SVG Version: 6.00 Build 0)  -->
<svg version="1.1" id="Capa_1" xmlns="http://www.w3.org/2000/svg" xmlns:xlink="http://www.w3.org/1999/xlink" x="0px" y="0px"
	 viewBox="0 0 673.3 150" style="enable-background:new 0 0 673.3 150;" xml:space="preserve">
<style type="text/css">
	.st0{fill:#0000BA;}
	.st1{fill:#14FEC1;}
</style>
<g>
	<g>
		<path class="st0" d="M77.8,53.5h6.7l4.5-13h6.7v13H107v9.4H95.8v22.4c0,1.4,0.4,2.5,1.3,3.3c0.9,0.8,2.1,1.2,3.6,1.2h9v9.4H97.6
			c-1.9,0-3.7-0.3-5.2-0.9c-1.6-0.6-3-1.5-4.1-2.6c-1.2-1.1-2.1-2.4-2.7-3.9c-0.6-1.5-0.9-3-0.9-4.7V62.9h-6.7V53.5z"/>
		<path class="st0" d="M147.4,99.2l-1.3-5.4h-0.9c-0.7,1.2-1.6,2.2-2.6,3.1c-1,0.8-2.1,1.6-3.3,2.2c-1.3,0.6-2.7,0.9-4.4,0.9h-7.2
			c-1.9,0-3.7-0.3-5.2-0.9c-1.6-0.6-3-1.5-4.1-2.6c-1.2-1.1-2.1-2.4-2.7-3.9c-0.6-1.5-0.9-3-0.9-4.7v-4.9c0-1.7,0.3-3.2,0.9-4.7
			c0.6-1.5,1.5-2.8,2.7-3.9c1.2-1.1,2.5-2,4.1-2.6c1.6-0.6,3.3-0.9,5.2-0.9h16.1v-3.1c0-3.3-1.6-4.9-4.9-4.9h-20.2v-9.4H142
			c1.9,0,3.7,0.3,5.2,0.9c1.6,0.6,3,1.5,4.1,2.6c1.2,1.1,2.1,2.4,2.7,3.9s0.9,3,0.9,4.7v33.6H147.4z M139.8,89.9
			c0.9-0.5,1.6-1.1,2.2-1.7c0.7-0.7,1.2-1.5,1.7-2.4v-5.4h-13.5c-1.4,0-2.5,0.4-3.3,1.2c-0.8,0.8-1.2,1.9-1.2,3.3v1.3
			c0,1.4,0.4,2.5,1.2,3.3c0.8,0.8,1.9,1.2,3.3,1.2h6.3C137.9,90.7,138.9,90.4,139.8,89.9z"/>
		<path class="st0" d="M194.5,62.4h-10.3c-1.3,0-2.3,0.2-3.2,0.7c-0.9,0.5-1.6,1-2.2,1.5c-0.7,0.7-1.2,1.4-1.7,2.2v32.3h-11.2V53.5
			h7.6l1.3,5.4h0.9c0.7-1.2,1.6-2.2,2.6-3.1c1-0.8,2.1-1.6,3.3-2.2c1.3-0.6,2.7-0.9,4.4-0.9h8.5V62.4z"/>
		<path class="st0" d="M197.2,53.5h6.7l4.5-13h6.7v13h11.2v9.4h-11.2v22.4c0,1.4,0.4,2.5,1.3,3.3c0.9,0.8,2.1,1.2,3.6,1.2h9v9.4
			h-12.1c-1.9,0-3.7-0.3-5.2-0.9c-1.6-0.6-3-1.5-4.1-2.6c-1.2-1.1-2.1-2.4-2.7-3.9c-0.6-1.5-0.9-3-0.9-4.7V62.9h-6.7V53.5z"/>
		<path class="st0" d="M308.4,60c0.6-1.5,1.5-2.8,2.7-3.9c1.2-1.1,2.5-2,4.1-2.6c1.6-0.6,3.3-0.9,5.2-0.9h15.3
			c1.9,0,3.7,0.3,5.2,0.9c1.6,0.6,3,1.5,4.1,2.6c1.2,1.1,2.1,2.4,2.7,3.9c0.6,1.5,0.9,3,0.9,4.7V88c0,1.7-0.3,3.2-0.9,4.7
			c-0.6,1.5-1.5,2.8-2.7,3.9c-1.2,1.1-2.5,2-4.1,2.6c-1.6,0.6-3.3,0.9-5.2,0.9h-15.3c-1.9,0-3.7-0.3-5.2-0.9c-1.6-0.6-3-1.5-4.1-2.6
			c-1.2-1.1-2.1-2.4-2.7-3.9c-0.6-1.5-0.9-3-0.9-4.7V64.7C307.5,63,307.8,61.4,308.4,60z M337.6,66.5c0-1.4-0.4-2.5-1.3-3.3
			c-0.9-0.8-2.1-1.2-3.6-1.2h-9c-1.6,0-2.8,0.4-3.6,1.2c-0.9,0.8-1.3,1.9-1.3,3.3v19.7c0,1.4,0.4,2.5,1.3,3.3
			c0.9,0.8,2.1,1.2,3.6,1.2h9c1.6,0,2.8-0.4,3.6-1.2c0.9-0.8,1.3-1.9,1.3-3.3V66.5z"/>
		<path class="st0" d="M398.1,99.2h-7.6l-1.3-5.4h-0.9c-0.7,1.2-1.6,2.2-2.6,3.1c-1,0.8-2.1,1.6-3.3,2.2c-1.3,0.6-2.7,0.9-4.4,0.9
			h-8.1c-1.9,0-3.7-0.3-5.2-0.9c-1.6-0.6-3-1.5-4.1-2.6c-1.2-1.1-2.1-2.4-2.7-3.9c-0.6-1.5-0.9-3-0.9-4.7V65.6
			c0-1.7,0.3-3.2,0.9-4.7c0.6-1.5,1.5-2.8,2.7-3.9s2.5-2,4.1-2.6c1.6-0.6,3.3-0.9,5.2-0.9h17v-17h11.2V99.2z M373,62.9
			c-1.6,0-2.8,0.4-3.6,1.2c-0.9,0.8-1.3,1.9-1.3,3.3v18.8c0,1.4,0.4,2.5,1.3,3.3c0.9,0.8,2.1,1.2,3.6,1.2h6.7c1.3,0,2.3-0.3,3.2-0.8
			c0.9-0.5,1.6-1.1,2.2-1.7c0.7-0.7,1.2-1.5,1.7-2.4V62.9H373z"/>
		<path class="st0" d="M421,47.6h-11.2V35.1H421V47.6z M421,99.2h-11.2V53.5H421V99.2z"/>
		<path class="st0" d="M431.8,99.2V53.5h7.6l1.3,5.4h0.9c0.7-1.2,1.6-2.2,2.6-3.1c1-0.8,2.1-1.6,3.3-2.2c1.3-0.6,2.7-0.9,4.4-0.9
			h8.1c1.9,0,3.7,0.3,5.2,0.9c1.6,0.6,3,1.5,4.1,2.6c1.2,1.1,2.1,2.4,2.7,3.9c0.6,1.5,0.9,3,0.9,4.7v34.5h-11.2V66.5
			c0-1.4-0.4-2.5-1.3-3.3c-0.9-0.8-2.1-1.2-3.6-1.2h-6.7c-1.3,0-2.3,0.3-3.2,0.8c-0.9,0.5-1.6,1.1-2.2,1.7c-0.7,0.8-1.2,1.6-1.7,2.5
			v32.3H431.8z"/>
		<path class="st0" d="M514.7,54.8c1.3,0.5,2.5,1.2,3.6,2.1c1,0.8,1.8,1.9,2.5,3.1c0.7,1.2,1.1,2.8,1.1,4.7v4.9
			c0,1.7-0.3,3.2-0.9,4.7c-0.6,1.5-1.5,2.8-2.7,3.9c-1.2,1.1-2.5,2-4.1,2.6c-1.6,0.6-3.3,0.9-5.2,0.9h-13.3c-0.6,0.1-1,0.3-1.2,0.6
			c-0.2,0.4-0.3,0.7-0.3,1.2v0.9c0,0.5,0.1,0.9,0.4,1.2c0.3,0.3,0.7,0.5,1.2,0.6h15.4c1.9,0,3.7,0.4,5.4,1.1
			c1.7,0.7,3.1,1.7,4.4,2.9c1.3,1.2,2.3,2.6,3,4.2c0.7,1.6,1.1,3.2,1.1,4.8v2.7c0,1.7-0.4,3.3-1.1,4.8c-0.7,1.6-1.7,2.9-3,4.2
			c-1.3,1.2-2.7,2.2-4.4,2.9c-1.7,0.7-3.5,1.1-5.4,1.1h-17.9c-1.9,0-3.7-0.4-5.4-1.1c-1.7-0.7-3.1-1.7-4.4-2.9
			c-1.3-1.2-2.3-2.6-3-4.2c-0.7-1.6-1.1-3.2-1.1-4.8v-2.7c0-1.9,0.4-3.5,1.1-4.9c0.7-1.3,1.6-2.5,2.5-3.4c1.1-1,2.3-1.9,3.6-2.5
			v-0.9c-0.4-0.2-0.8-0.4-1.1-0.8c-0.4-0.3-0.6-0.7-0.9-1.1c-0.2-0.4-0.3-1-0.3-1.7v-1.3c0-0.7,0.1-1.2,0.4-1.7
			c0.2-0.5,0.5-0.9,0.8-1.2c0.3-0.3,0.7-0.6,1.1-0.8v-0.9c-0.8-0.5-1.4-1.2-2-2.1c-0.6-0.8-1.1-1.7-1.5-2.7c-0.4-1-0.6-2.3-0.6-3.8
			v-4.9c0-1.7,0.3-3.2,0.9-4.7c0.6-1.5,1.5-2.8,2.7-3.9c1.2-1.1,2.5-2,4.1-2.6c1.6-0.6,3.3-0.9,5.2-0.9h10.3l4.9-8.1h9.4V49
			l-5.4,4.9V54.8z M508.9,95.6h-13.5c-3.3,0-4.9,1.6-4.9,4.9s1.6,4.9,4.9,4.9h13.5c3.3,0,4.9-1.6,4.9-4.9S512.2,95.6,508.9,95.6z
			 M505.8,62h-7.2c-3.3,0-4.9,1.6-4.9,4.9v0.4c0,3.3,1.6,4.9,4.9,4.9h7.2c3.3,0,4.9-1.6,4.9-4.9v-0.4C510.7,63.6,509.1,62,505.8,62z
			"/>
		<path class="st0" d="M561.8,47.2h-6.3V36.4h6.3V47.2z M561.8,99.2h-6.3V53.5h6.3V99.2z"/>
		<path class="st0" d="M605.4,99.2l-0.9-6.3H604c-0.7,1.3-1.6,2.5-2.8,3.6c-1,1-2.1,1.8-3.5,2.5c-1.4,0.7-3,1.1-4.9,1.1h-7.2
			c-4.3,0-7.6-1.2-10-3.6c-2.3-2.4-3.5-5.4-3.5-9v-2.7c0-1.8,0.3-3.5,1-5c0.7-1.5,1.6-2.9,2.7-4c1.2-1.1,2.6-2,4.2-2.6
			c1.6-0.6,3.5-0.9,5.5-0.9h17.5V66c0-2-0.7-3.7-2.1-5.1s-3.1-2.1-5.1-2.1h-19.7v-5.4h19.7c2,0,3.9,0.3,5.5,0.9
			c1.6,0.6,3,1.5,4.2,2.6c1.2,1.1,2.1,2.5,2.7,4c0.7,1.5,1,3.2,1,5v33.2H605.4z M592.8,94.7c1.7,0,3.2-0.4,4.4-1.3
			c1.3-0.8,2.4-1.8,3.3-2.8c1-1.2,1.9-2.5,2.6-4v-9h-17.5c-2,0-3.7,0.7-5.1,2.1c-1.4,1.4-2.1,3.1-2.1,5.1v2.7c0,2,0.7,3.7,2.1,5.1
			c1.4,1.4,3.1,2.1,5.1,2.1H592.8z"/>
	</g>
	<path class="st1" d="M645.7,112.7h-28.3v-5.4h28.3V112.7z"/>
	<rect x="269.4" y="89.4" class="st1" width="32.3" height="9.9"/>
	<polygon class="st1" points="39.7,36.4 39.7,46.3 68,46.3 71.1,43.1 71.1,36.4 	"/>
	<g>
		<path class="st0" d="M272.5,36.4c-2.2,0-4.2,0.3-6.1,1c-1.8,0.7-3.4,1.6-4.7,2.9c-1.3,1.2-2.3,2.7-3,4.4c-0.7,1.7-1,3.6-1,5.6v39
			h11.7V52.1c0-1.6,0.6-2.9,1.8-4.1c1.2-1.2,2.7-1.7,4.5-1.7h22.9l3.1-3.1v-6.7H272.5z"/>
		<path class="st0" d="M69.7,68.9c-2.2-2.4-4.8-4-8-4.6l-18.4-4c-1.1-0.2-2-0.7-2.6-1.5c-0.6-0.8-0.9-2.1-0.9-3.8l0-8.5H28.1v8.5
			v1.3c0,3.8,1.1,6.9,3.2,9.3c2.2,2.4,4.8,3.9,8,4.6l18.4,4c1.1,0.2,2,0.8,2.6,1.7c0.6,0.9,0.9,2.3,0.9,4.1v3.1
			c0,1.8-0.6,3.3-1.9,4.5c-1.3,1.2-3,1.8-5.3,1.8H27.6v9.9h30.1c2.3,0,4.3-0.4,6.2-1.1c1.9-0.7,3.5-1.7,4.8-3
			c1.3-1.3,2.4-2.7,3.1-4.3c0.7-1.6,1.1-3.3,1.1-5.1v-7.2C72.9,74.5,71.8,71.3,69.7,68.9z"/>
	</g>
</g>
</svg>
